<svg width="755" height="627" viewBox="0 0 755 627" fill="none" xmlns="http://www.w3.org/2000/svg">
<rect width="755" height="627" fill="#444444"/>
<rect x="68.5" y="417.5" width="621" height="119" rx="4.5" stroke="#8A38F5" stroke-dasharray="10 5"/>
<line x1="90" y1="446.831" x2="251" y2="446.831" stroke="black" stroke-width="4" stroke-linecap="round"/>
<circle cx="123" cy="447" r="9.5" fill="#899AAE" stroke="black"/>
<line x1="285" y1="446.831" x2="446" y2="446.831" stroke="black" stroke-width="4" stroke-linecap="round"/>
<circle cx="343" cy="447" r="9.5" fill="#899AAE" stroke="black"/>
<line x1="480" y1="446.831" x2="641" y2="446.831" stroke="black" stroke-width="4" stroke-linecap="round"/>
<circle cx="593" cy="447" r="9.5" fill="#899AAE" stroke="black"/>
<line x1="90" y1="506.831" x2="251" y2="506.831" stroke="black" stroke-width="4" stroke-linecap="round"/>
<circle cx="218" cy="507" r="9.5" fill="#899AAE" stroke="black"/>
<line x1="285" y1="506.831" x2="446" y2="506.831" stroke="black" stroke-width="4" stroke-linecap="round"/>
<circle cx="433" cy="507" r="9.5" fill="#899AAE" stroke="black"/>
<line x1="480" y1="506.831" x2="641" y2="506.831" stroke="black" stroke-width="4" stroke-linecap="round"/>
<circle cx="493" cy="507" r="9.5" fill="#899AAE" stroke="black"/>
<rect x="68.5" y="287.5" width="347" height="89" rx="4.5" stroke="#8A38F5" stroke-dasharray="10 5"/>
<path d="M196.919 341.294C196.774 341.439 196.601 341.555 196.412 341.633C196.222 341.712 196.019 341.752 195.813 341.752C195.608 341.752 195.405 341.712 195.215 341.633C195.025 341.555 194.853 341.439 194.708 341.294L180.188 326.773L165.669 341.294C165.376 341.587 164.978 341.752 164.563 341.752C164.149 341.752 163.751 341.587 163.458 341.294C163.165 341.001 163 340.603 163 340.189C163 339.774 163.165 339.376 163.458 339.083L179.083 323.458C179.228 323.313 179.4 323.198 179.59 323.119C179.78 323.04 179.983 323 180.188 323C180.394 323 180.597 323.04 180.787 323.119C180.976 323.198 181.149 323.313 181.294 323.458L196.919 339.083C197.064 339.228 197.179 339.401 197.258 339.59C197.337 339.78 197.377 339.983 197.377 340.189C197.377 340.394 197.337 340.597 197.258 340.787C197.179 340.977 197.064 341.149 196.919 341.294Z" fill="#F5F3EA"/>
<path d="M93.0812 323.706C93.2263 323.561 93.3986 323.445 93.5883 323.367C93.778 323.288 93.9813 323.248 94.1866 323.248C94.392 323.248 94.5953 323.288 94.785 323.367C94.9747 323.445 95.147 323.561 95.2921 323.706L109.812 338.227L124.331 323.706C124.624 323.413 125.022 323.248 125.437 323.248C125.851 323.248 126.249 323.413 126.542 323.706C126.835 323.999 127 324.397 127 324.811C127 325.226 126.835 325.624 126.542 325.917L110.917 341.542C110.772 341.687 110.6 341.802 110.41 341.881C110.22 341.96 110.017 342 109.812 342C109.606 342 109.403 341.96 109.213 341.881C109.024 341.802 108.851 341.687 108.706 341.542L93.0812 325.917C92.9359 325.772 92.8206 325.599 92.742 325.41C92.6634 325.22 92.6229 325.017 92.6229 324.811C92.6229 324.606 92.6634 324.403 92.742 324.213C92.8206 324.023 92.9359 323.851 93.0812 323.706Z" fill="#F5F3EA"/>
<path d="M258.794 316.581C258.939 316.726 259.055 316.899 259.133 317.088C259.212 317.278 259.252 317.481 259.252 317.687C259.252 317.892 259.212 318.095 259.133 318.285C259.055 318.475 258.939 318.647 258.794 318.792L244.273 333.312L258.794 347.831C259.087 348.124 259.252 348.522 259.252 348.937C259.252 349.351 259.087 349.749 258.794 350.042C258.501 350.335 258.103 350.5 257.689 350.5C257.274 350.5 256.876 350.335 256.583 350.042L240.958 334.417C240.813 334.272 240.698 334.1 240.619 333.91C240.54 333.72 240.5 333.517 240.5 333.312C240.5 333.106 240.54 332.903 240.619 332.713C240.698 332.524 240.813 332.351 240.958 332.206L256.583 316.581C256.728 316.436 256.901 316.321 257.09 316.242C257.28 316.163 257.483 316.123 257.689 316.123C257.894 316.123 258.097 316.163 258.287 316.242C258.477 316.321 258.649 316.436 258.794 316.581Z" fill="#F5F3EA"/>
<path d="M310.206 349.419C310.061 349.274 309.945 349.101 309.867 348.912C309.788 348.722 309.748 348.519 309.748 348.313C309.748 348.108 309.788 347.905 309.867 347.715C309.945 347.525 310.061 347.353 310.206 347.208L324.727 332.688L310.206 318.169C309.913 317.876 309.748 317.478 309.748 317.063C309.748 316.649 309.913 316.251 310.206 315.958C310.499 315.665 310.897 315.5 311.311 315.5C311.726 315.5 312.124 315.665 312.417 315.958L328.042 331.583C328.187 331.728 328.302 331.9 328.381 332.09C328.46 332.28 328.5 332.483 328.5 332.688C328.5 332.894 328.46 333.097 328.381 333.287C328.302 333.476 328.187 333.649 328.042 333.794L312.417 349.419C312.272 349.564 312.099 349.679 311.91 349.758C311.72 349.837 311.517 349.877 311.311 349.877C311.106 349.877 310.903 349.837 310.713 349.758C310.523 349.679 310.351 349.564 310.206 349.419Z" fill="#F5F3EA"/>
<rect x="65.5" y="170.5" width="139" height="89" rx="4.5" stroke="#8A38F5" stroke-dasharray="10 5"/>
<path d="M125.625 205.625H103.75V200.938C103.75 199.28 104.408 197.69 105.581 196.518C106.753 195.346 108.342 194.688 110 194.688C113.002 194.688 115.703 196.836 116.281 199.686C116.367 200.088 116.608 200.441 116.953 200.666C117.297 200.892 117.716 200.973 118.12 200.891C118.523 200.809 118.878 200.572 119.108 200.229C119.337 199.887 119.422 199.469 119.344 199.064C118.461 194.717 114.531 191.562 110 191.562C107.514 191.565 105.131 192.554 103.374 194.311C101.616 196.069 100.628 198.452 100.625 200.938V205.625H94.375C93.5462 205.625 92.7513 205.954 92.1653 206.54C91.5792 207.126 91.25 207.921 91.25 208.75V230.625C91.25 231.454 91.5792 232.249 92.1653 232.835C92.7513 233.421 93.5462 233.75 94.375 233.75H125.625C126.454 233.75 127.249 233.421 127.835 232.835C128.421 232.249 128.75 231.454 128.75 230.625V208.75C128.75 207.921 128.421 207.126 127.835 206.54C127.249 205.954 126.454 205.625 125.625 205.625ZM125.625 230.625H94.375V208.75H125.625V230.625Z" fill="black"/>
<path d="M175.625 205.625H169.375V200.938C169.375 198.451 168.387 196.067 166.629 194.308C164.871 192.55 162.486 191.562 160 191.562C157.514 191.562 155.129 192.55 153.371 194.308C151.613 196.067 150.625 198.451 150.625 200.938V205.625H144.375C143.546 205.625 142.751 205.954 142.165 206.54C141.579 207.126 141.25 207.921 141.25 208.75V230.625C141.25 231.454 141.579 232.249 142.165 232.835C142.751 233.421 143.546 233.75 144.375 233.75H175.625C176.454 233.75 177.249 233.421 177.835 232.835C178.421 232.249 178.75 231.454 178.75 230.625V208.75C178.75 207.921 178.421 207.126 177.835 206.54C177.249 205.954 176.454 205.625 175.625 205.625ZM153.75 200.938C153.75 199.28 154.408 197.69 155.581 196.518C156.753 195.346 158.342 194.688 160 194.688C161.658 194.688 163.247 195.346 164.419 196.518C165.592 197.69 166.25 199.28 166.25 200.938V205.625H153.75V200.938ZM175.625 230.625H144.375V208.75H175.625V230.625Z" fill="black"/>
<rect x="232.5" y="140.5" width="99" height="119" rx="4.5" stroke="#8A38F5" stroke-dasharray="10 5"/>
<g filter="url(#filter0_d_6851_6865)">
<rect x="252" y="210" width="60" height="30" rx="15" fill="#6EFF88"/>
<circle cx="297" cy="225" r="10" fill="#777777"/>
</g>
<g filter="url(#filter1_d_6851_6865)">
<rect x="252" y="160" width="60" height="30" rx="15" fill="#FF6E6E"/>
<circle cx="267" cy="175" r="10" fill="#777777"/>
</g>
<rect x="67.5" y="50.5" width="139" height="92" rx="4.5" stroke="#8A38F5" stroke-dasharray="10 5"/>
<g clip-path="url(#clip0_6851_6865)">
<path fill-rule="evenodd" clip-rule="evenodd" d="M95 91.3333V83.3333C95 79.7971 96.4048 76.4057 98.9052 73.9052C101.406 71.4048 104.797 70 108.333 70C111.87 70 115.261 71.4048 117.761 73.9052C120.262 76.4057 121.667 79.7971 121.667 83.3333V91.3333H124.333C125.748 91.3333 127.104 91.8952 128.105 92.8954C129.105 93.8956 129.667 95.2522 129.667 96.6667V118C129.667 119.414 129.105 120.771 128.105 121.771C127.104 122.771 125.748 123.333 124.333 123.333H92.3333C90.9188 123.333 89.5623 122.771 88.5621 121.771C87.5619 120.771 87 119.414 87 118V96.6667C87 95.2522 87.5619 93.8956 88.5621 92.8954C89.5623 91.8952 90.9188 91.3333 92.3333 91.3333H95ZM92.3333 96.6667V118H124.333V96.6667H92.3333ZM100.333 91.3333H116.333V83.3333C116.333 81.2116 115.49 79.1768 113.99 77.6765C112.49 76.1762 110.455 75.3333 108.333 75.3333C106.212 75.3333 104.177 76.1762 102.676 77.6765C101.176 79.1768 100.333 81.2116 100.333 83.3333V91.3333ZM113.667 102H119V112.667H113.667V102Z" fill="#1A1A1A"/>
</g>
<g clip-path="url(#clip1_6851_6865)">
<path fill-rule="evenodd" clip-rule="evenodd" d="M152 91.3333V83.3333C152 79.7971 153.405 76.4057 155.905 73.9052C158.406 71.4048 161.797 70 165.333 70C168.87 70 172.261 71.4048 174.761 73.9052C177.262 76.4057 178.667 79.7971 178.667 83.3333C178.667 84.8 177.467 86 176 86C174.533 86 173.333 84.8 173.333 83.3333C173.333 81.2116 172.49 79.1768 170.99 77.6765C169.49 76.1762 167.455 75.3333 165.333 75.3333C163.212 75.3333 161.177 76.1762 159.676 77.6765C158.176 79.1768 157.333 81.2116 157.333 83.3333V91.3333H181.333C182.748 91.3333 184.104 91.8952 185.105 92.8954C186.105 93.8956 186.667 95.2522 186.667 96.6667V118C186.667 119.414 186.105 120.771 185.105 121.771C184.104 122.771 182.748 123.333 181.333 123.333H149.333C147.919 123.333 146.562 122.771 145.562 121.771C144.562 120.771 144 119.414 144 118V96.6667C144 95.2522 144.562 93.8956 145.562 92.8954C146.562 91.8952 147.919 91.3333 149.333 91.3333H152ZM149.333 96.6667V118H181.333V96.6667H149.333ZM170.667 102H176V112.667H170.667V102Z" fill="#1A1A1A"/>
</g>
<rect x="232.5" y="50.5" width="124" height="64" rx="4.5" stroke="#8A38F5" stroke-dasharray="10 5"/>
<circle cx="299.5" cy="82.5" r="12.5" fill="#D9D9D9"/>
<path d="M300.077 90L307 82.5L300.077 75M306.038 82.5H292" stroke="#1A1A1A" stroke-width="4" stroke-linecap="round" stroke-linejoin="round"/>
<circle cx="264.5" cy="82.5" r="12.5" fill="#D9D9D9"/>
<path d="M263.977 89.25L257.698 82.5L263.977 75.75M258.57 82.5H271.302" stroke="#1A1A1A" stroke-width="4" stroke-linecap="round" stroke-linejoin="round"/>
<rect x="393.5" y="50.5" width="151" height="82" rx="4.5" stroke="#8A38F5" stroke-dasharray="10 5"/>
<g clip-path="url(#clip2_6851_6865)">
<path d="M430.162 83.584L430.387 84.2744H446.199L433.994 93.1416L433.406 93.5693L433.631 94.2598L438.292 108.606L426.088 99.7402L425.5 99.3135L424.912 99.7402L412.707 108.606L417.369 94.2598L417.594 93.5693L417.006 93.1416L404.801 84.2744H420.613L420.838 83.584L425.5 69.2354L430.162 83.584Z" stroke="black" stroke-width="2"/>
</g>
<g clip-path="url(#clip3_6851_6865)">
<path d="M497.162 83.584L497.387 84.2744H513.199L500.994 93.1416L500.406 93.5693L500.631 94.2598L505.292 108.606L493.088 99.7402L492.5 99.3135L491.912 99.7402L479.707 108.606L484.369 94.2598L484.594 93.5693L484.006 93.1416L471.801 84.2744H487.613L487.838 83.584L492.5 69.2354L497.162 83.584Z" fill="#CBB642" stroke="black" stroke-width="2"/>
</g>
<rect x="393.5" y="155.5" width="94" height="59" rx="4.5" stroke="#8A38F5" stroke-dasharray="10 5"/>
<g filter="url(#filter2_d_6851_6865)">
<rect x="405" y="170" width="30" height="30" rx="2" fill="#D9D9D9"/>
</g>
<g filter="url(#filter3_d_6851_6865)">
<rect x="447" y="170" width="30" height="30" rx="2" fill="#6EFF88"/>
<g clip-path="url(#clip4_6851_6865)">
<rect width="24" height="24" transform="translate(450 173)" fill="#6EFF88"/>
<path d="M471.531 179.281L459.531 191.281C459.461 191.351 459.379 191.406 459.288 191.444C459.197 191.482 459.099 191.501 459 191.501C458.902 191.501 458.804 191.482 458.713 191.444C458.622 191.406 458.539 191.351 458.47 191.281L453.22 186.031C453.079 185.89 453 185.699 453 185.5C453 185.301 453.079 185.111 453.22 184.97C453.361 184.829 453.551 184.75 453.75 184.75C453.949 184.75 454.14 184.829 454.281 184.97L459 189.69L470.47 178.22C470.611 178.079 470.801 178 471 178C471.199 178 471.39 178.079 471.531 178.22C471.672 178.361 471.751 178.551 471.751 178.75C471.751 178.949 471.672 179.14 471.531 179.281Z" fill="black"/>
</g>
</g>
<defs>
<filter id="filter0_d_6851_6865" x="248" y="210" width="68" height="38" filterUnits="userSpaceOnUse" color-interpolation-filters="sRGB">
<feFlood flood-opacity="0" result="BackgroundImageFix"/>
<feColorMatrix in="SourceAlpha" type="matrix" values="0 0 0 0 0 0 0 0 0 0 0 0 0 0 0 0 0 0 127 0" result="hardAlpha"/>
<feOffset dy="4"/>
<feGaussianBlur stdDeviation="2"/>
<feComposite in2="hardAlpha" operator="out"/>
<feColorMatrix type="matrix" values="0 0 0 0 0 0 0 0 0 0 0 0 0 0 0 0 0 0 0.25 0"/>
<feBlend mode="normal" in2="BackgroundImageFix" result="effect1_dropShadow_6851_6865"/>
<feBlend mode="normal" in="SourceGraphic" in2="effect1_dropShadow_6851_6865" result="shape"/>
</filter>
<filter id="filter1_d_6851_6865" x="248" y="160" width="68" height="38" filterUnits="userSpaceOnUse" color-interpolation-filters="sRGB">
<feFlood flood-opacity="0" result="BackgroundImageFix"/>
<feColorMatrix in="SourceAlpha" type="matrix" values="0 0 0 0 0 0 0 0 0 0 0 0 0 0 0 0 0 0 127 0" result="hardAlpha"/>
<feOffset dy="4"/>
<feGaussianBlur stdDeviation="2"/>
<feComposite in2="hardAlpha" operator="out"/>
<feColorMatrix type="matrix" values="0 0 0 0 0 0 0 0 0 0 0 0 0 0 0 0 0 0 0.25 0"/>
<feBlend mode="normal" in2="BackgroundImageFix" result="effect1_dropShadow_6851_6865"/>
<feBlend mode="normal" in="SourceGraphic" in2="effect1_dropShadow_6851_6865" result="shape"/>
</filter>
<filter id="filter2_d_6851_6865" x="401" y="170" width="38" height="38" filterUnits="userSpaceOnUse" color-interpolation-filters="sRGB">
<feFlood flood-opacity="0" result="BackgroundImageFix"/>
<feColorMatrix in="SourceAlpha" type="matrix" values="0 0 0 0 0 0 0 0 0 0 0 0 0 0 0 0 0 0 127 0" result="hardAlpha"/>
<feOffset dy="4"/>
<feGaussianBlur stdDeviation="2"/>
<feComposite in2="hardAlpha" operator="out"/>
<feColorMatrix type="matrix" values="0 0 0 0 0 0 0 0 0 0 0 0 0 0 0 0 0 0 0.25 0"/>
<feBlend mode="normal" in2="BackgroundImageFix" result="effect1_dropShadow_6851_6865"/>
<feBlend mode="normal" in="SourceGraphic" in2="effect1_dropShadow_6851_6865" result="shape"/>
</filter>
<filter id="filter3_d_6851_6865" x="443" y="170" width="38" height="38" filterUnits="userSpaceOnUse" color-interpolation-filters="sRGB">
<feFlood flood-opacity="0" result="BackgroundImageFix"/>
<feColorMatrix in="SourceAlpha" type="matrix" values="0 0 0 0 0 0 0 0 0 0 0 0 0 0 0 0 0 0 127 0" result="hardAlpha"/>
<feOffset dy="4"/>
<feGaussianBlur stdDeviation="2"/>
<feComposite in2="hardAlpha" operator="out"/>
<feColorMatrix type="matrix" values="0 0 0 0 0 0 0 0 0 0 0 0 0 0 0 0 0 0 0.25 0"/>
<feBlend mode="normal" in2="BackgroundImageFix" result="effect1_dropShadow_6851_6865"/>
<feBlend mode="normal" in="SourceGraphic" in2="effect1_dropShadow_6851_6865" result="shape"/>
</filter>
<clipPath id="clip0_6851_6865">
<rect width="43" height="53" fill="white" transform="translate(87 70)"/>
</clipPath>
<clipPath id="clip1_6851_6865">
<rect width="43" height="53" fill="white" transform="translate(144 70)"/>
</clipPath>
<clipPath id="clip2_6851_6865">
<rect width="50" height="50" fill="white" transform="translate(400.5 66)"/>
</clipPath>
<clipPath id="clip3_6851_6865">
<rect width="50" height="50" fill="white" transform="translate(467.5 66)"/>
</clipPath>
<clipPath id="clip4_6851_6865">
<rect width="24" height="24" fill="white" transform="translate(450 173)"/>
</clipPath>
</defs>
</svg>
